<?xml version="1.0" encoding="UTF-8"?>
<svg version="1.1" xmlns="http://www.w3.org/2000/svg" width="150" height="52">
<path d="M0 0 C1.07636719 -0.02449219 2.15273438 -0.04898438 3.26171875 -0.07421875 C9.3653074 -0.09679676 13.46634229 0.01064886 18.125 4.375 C19.83746956 6.48895764 21.33640317 8.49029621 22.8125 10.75 C23.37807617 11.57757812 23.37807617 11.57757812 23.95507812 12.421875 C30.96727276 22.8483843 30.96727276 22.8483843 30.73828125 29.17578125 C29.64234005 33.10581243 26.93370142 35.81673177 24.2890625 38.83984375 C21.68471325 41.89078719 19.62467547 45.1402404 17.546875 48.5625 C15.91005322 50.64899809 14.58920578 51.4399654 12.125 52.375 C8.23169775 52.375 6.46561649 50.95313123 3.8125 48.3125 C2.925625 47.343125 2.03875 46.37375 1.125 45.375 C-1.79941896 46.56642995 -3.10683911 47.63734425 -5.25 50.0625 C-7.875 52.375 -7.875 52.375 -10.9375 52.4375 C-17.05153673 50.22603991 -20.4421782 44.15941964 -24.125 39.0625 C-24.67929687 38.32837891 -25.23359375 37.59425781 -25.8046875 36.83789062 C-28.29358689 33.38346992 -29.76955298 31.02385065 -30.4609375 26.76953125 C-29.77482139 22.7946319 -28.33802669 19.76357976 -26.25 16.375 C-25.88680664 15.7655957 -25.52361328 15.15619141 -25.14941406 14.52832031 C-18.0792318 2.90635845 -13.37869723 0.01590808 0 0 Z M-0.875 11.375 C-9.98551991 21.67140161 -9.98551991 21.67140161 -13.875 34.375 C-12.6065625 34.684375 -12.6065625 34.684375 -11.3125 35 C-7.02846611 36.71361355 -4.20257433 39.24432356 -0.875 42.375 C1.93608044 41.07804229 3.6246628 39.92964838 6 37.8125 C9.32866489 35.21614139 11.04630504 34.88057639 15.125 34.375 C9.45231078 22.0232948 9.45231078 22.0232948 1.125 11.375 C0.465 11.375 -0.195 11.375 -0.875 11.375 Z " fill="#D60B18" transform="translate(29.875,-0.375)"/>
<path d="M0 0 C1.06992187 0.00644531 2.13984375 0.01289062 3.2421875 0.01953125 C4.35335938 0.03628906 5.46453125 0.05304687 6.609375 0.0703125 C7.73601563 0.07933594 8.86265625 0.08835938 10.0234375 0.09765625 C12.80229865 0.12120592 15.5807289 0.1540957 18.359375 0.1953125 C18.359375 0.8553125 18.359375 1.5153125 18.359375 2.1953125 C17.34875 2.5253125 16.338125 2.8553125 15.296875 3.1953125 C5.43134425 7.52507449 -1.8130094 21.16213269 -6.21875 30.5625 C-7.640625 33.1953125 -7.640625 33.1953125 -10.640625 34.1953125 C-13.26953125 33.48828125 -13.26953125 33.48828125 -16.203125 32.3828125 C-17.17378906 32.02574219 -18.14445312 31.66867188 -19.14453125 31.30078125 C-21.640625 30.1953125 -21.640625 30.1953125 -23.640625 28.1953125 C-23.40174638 22.73428173 -21.80984565 19.19272296 -18.890625 14.6328125 C-18.52936523 14.06780029 -18.16810547 13.50278809 -17.79589844 12.9206543 C-9.35830423 -0.09955643 -9.35830423 -0.09955643 0 0 Z " fill="#032244" transform="translate(23.640625,-0.1953125)"/>
<path d="M0 0 C1.65 0.33 3.3 0.66 5 1 C5 1.99 5 2.98 5 4 C5.99 4 6.98 4 8 4 C8.33 2.68 8.66 1.36 9 0 C10.65 0.33 12.3 0.66 14 1 C14 1.99 14 2.98 14 4 C18.455 3.505 18.455 3.505 23 3 C23 2.34 23 1.68 23 1 C24.65 0.67 26.3 0.34 28 0 C28.495 1.98 28.495 1.98 29 4 C29.99 4 30.98 4 32 4 C32 5.32 32 6.64 32 8 C31.01 8 30.02 8 29 8 C29.05220703 9.24716797 29.05220703 9.24716797 29.10546875 10.51953125 C29.13253906 11.60621094 29.15960938 12.69289063 29.1875 13.8125 C29.23970703 15.43091797 29.23970703 15.43091797 29.29296875 17.08203125 C29 20 29 20 27.74609375 21.6640625 C25.57616489 23.32427653 24.47557641 23.35054418 21.76953125 23.29296875 C20.96708984 23.28330078 20.16464844 23.27363281 19.33789062 23.26367188 C18.08782227 23.2259668 18.08782227 23.2259668 16.8125 23.1875 C15.5450293 23.16719727 15.5450293 23.16719727 14.25195312 23.14648438 C12.16769616 23.11115799 10.08376723 23.05735139 8 23 C8 18.05 8 13.1 8 8 C7.01 8 6.02 8 5 8 C5 13.94 5 19.88 5 26 C13.91 26 22.82 26 32 26 C32 27.32 32 28.64 32 30 C21.11 30 10.22 30 -1 30 C-1 22.74 -1 15.48 -1 8 C-1.99 8 -2.98 8 -4 8 C-4 6.68 -4 5.36 -4 4 C-3.01 4 -2.02 4 -1 4 C-0.67 2.68 -0.34 1.36 0 0 Z M14 8 C14 11.63 14 15.26 14 19 C16.97 19 19.94 19 23 19 C23.33 15.37 23.66 11.74 24 8 C20.7 8 17.4 8 14 8 Z " fill="#022245" transform="translate(114,2)"/>
<path d="M0 0 C0.70744354 0.00141495 1.41488708 0.0028299 2.14376831 0.00428772 C4.40578419 0.00989025 6.66770148 0.02244307 8.9296875 0.03515625 C10.46223815 0.04017093 11.99479036 0.04473389 13.52734375 0.04882812 C17.28649638 0.05986048 21.04557522 0.07712673 24.8046875 0.09765625 C25.2996875 2.07765625 25.2996875 2.07765625 25.8046875 4.09765625 C24.41443359 4.17113281 24.41443359 4.17113281 22.99609375 4.24609375 C21.79855469 4.32085938 20.60101563 4.395625 19.3671875 4.47265625 C17.57474609 4.57707031 17.57474609 4.57707031 15.74609375 4.68359375 C14.77542969 4.82023438 13.80476563 4.956875 12.8046875 5.09765625 C12.4746875 5.75765625 12.1446875 6.41765625 11.8046875 7.09765625 C18.7346875 7.59265625 18.7346875 7.59265625 25.8046875 8.09765625 C25.91248232 11.20274598 25.99189379 14.30411043 26.0546875 17.41015625 C26.10496094 18.73176758 26.10496094 18.73176758 26.15625 20.08007812 C26.16914062 20.92763672 26.18203125 21.77519531 26.1953125 22.6484375 C26.21625977 23.42872314 26.23720703 24.20900879 26.25878906 25.01293945 C25.8046875 27.09765625 25.8046875 27.09765625 24.22851562 28.85742188 C20.9122539 30.55430036 18.34908704 30.4363169 14.6328125 30.390625 C13.6091861 30.38425774 13.6091861 30.38425774 12.56488037 30.37776184 C10.39440746 30.36102597 8.22487771 30.32338584 6.0546875 30.28515625 C4.57944053 30.27010271 3.10417895 30.25641547 1.62890625 30.24414062 C-1.97981857 30.21369581 -5.58651525 30.15497244 -9.1953125 30.09765625 C-9.1953125 22.83765625 -9.1953125 15.57765625 -9.1953125 8.09765625 C-4.2453125 8.09765625 0.7046875 8.09765625 5.8046875 8.09765625 C5.8046875 7.10765625 5.8046875 6.11765625 5.8046875 5.09765625 C0.8546875 4.76765625 -4.0953125 4.43765625 -9.1953125 4.09765625 C-9.1953125 3.10765625 -9.1953125 2.11765625 -9.1953125 1.09765625 C-6.23720774 -0.38139613 -3.240597 -0.02425278 0 0 Z M-3.1953125 11.09765625 C-3.1953125 13.07765625 -3.1953125 15.05765625 -3.1953125 17.09765625 C4.7246875 17.09765625 12.6446875 17.09765625 20.8046875 17.09765625 C20.8046875 15.44765625 20.8046875 13.79765625 20.8046875 12.09765625 C12.8846875 11.76765625 4.9646875 11.43765625 -3.1953125 11.09765625 Z M-3.1953125 20.09765625 C-3.1953125 22.07765625 -3.1953125 24.05765625 -3.1953125 26.09765625 C4.3946875 26.09765625 11.9846875 26.09765625 19.8046875 26.09765625 C20.1346875 24.11765625 20.4646875 22.13765625 20.8046875 20.09765625 C12.8846875 20.09765625 4.9646875 20.09765625 -3.1953125 20.09765625 Z " fill="#022245" transform="translate(80.1953125,1.90234375)"/>
<path d="M0 0 C1.2375 0.45375 2.475 0.9075 3.75 1.375 C7.52920161 2.67632886 11.03217047 3.26528224 15 3.6875 C21.76237225 4.66717701 25.47572591 8.08727814 30 13 C28.091422 17.13225143 25.77184209 20.38116177 22 23 C18.51432258 23.1394271 16.86632532 22.73959214 14.2109375 20.47265625 C11.07667456 16.96737632 8.43692496 13.16611606 5.75 9.3125 C5.19570312 8.52810547 4.64140625 7.74371094 4.0703125 6.93554688 C0 1.13585283 0 1.13585283 0 0 Z " fill="#D60B17" transform="translate(0,29)"/>
<path d="M0 0 C0.66 0 1.32 0 2 0 C-0.16276692 4.53990781 -2.99886769 8.51426893 -5.875 12.625 C-6.40480469 13.40101562 -6.93460938 14.17703125 -7.48046875 14.9765625 C-7.99996094 15.7190625 -8.51945312 16.4615625 -9.0546875 17.2265625 C-9.52374512 17.90283691 -9.99280273 18.57911133 -10.47607422 19.27587891 C-12.1851326 21.20945313 -13.60856872 22.06308309 -16 23 C-19.07171995 23.08301946 -20.57003994 22.37442355 -22.875 20.3671875 C-24.63198141 18.6172907 -26.3352115 16.83750431 -28 15 C-25.90278925 10.48368103 -23.42726415 7.35281253 -19 5 C-15.33985886 4.01198085 -11.6204967 3.44312665 -7.86694336 2.93725586 C-3.48154782 2.48742764 -3.48154782 2.48742764 0 0 Z " fill="#032244" transform="translate(58,29)"/>
<path d="M0 0 C2.64 0 5.28 0 8 0 C8.33 0.66 8.66 1.32 9 2 C9.66 1.34 10.32 0.68 11 0 C14.125 -0.125 14.125 -0.125 17 0 C17.66 1.32 18.32 2.64 19 4 C16.03 3.505 16.03 3.505 13 3 C12.67 4.65 12.34 6.3 12 8 C13.32 8 14.64 8 16 8 C16 7.34 16 6.68 16 6 C16.99 6 17.98 6 19 6 C19 6.66 19 7.32 19 8 C19.99 8 20.98 8 22 8 C22 8.99 22 9.98 22 11 C21.360625 10.814375 20.72125 10.62875 20.0625 10.4375 C19.0415625 10.2209375 19.0415625 10.2209375 18 10 C17.67 10.33 17.34 10.66 17 11 C15.906875 10.835 14.81375 10.67 13.6875 10.5 C10.53059663 10.07194531 8.90928883 9.95265602 6 11 C5.67 8.36 5.34 5.72 5 3 C4.67 3 4.34 3 4 3 C3.67 5.64 3.34 8.28 3 11 C2.01 11 1.02 11 0 11 C0 7.37 0 3.74 0 0 Z " fill="#022245" transform="translate(128,39)"/>
<path d="M0 0 C6.8359375 -0.1953125 6.8359375 -0.1953125 9 0 C11 2 11 2 11.0625 4.3125 C11.041875 5.199375 11.02125 6.08625 11 7 C11.226875 7.86625 11.45375 8.7325 11.6875 9.625 C12 12 12 12 10.8125 13.63671875 C8.48903509 15.3843249 7.18465337 15.31237623 4.3125 15.1875 C2.889375 15.125625 1.46625 15.06375 0 15 C0 10.05 0 5.1 0 0 Z M3 3 C3 3.99 3 4.98 3 6 C4.65 6 6.3 6 8 6 C8 5.01 8 4.02 8 3 C6.35 3 4.7 3 3 3 Z M3 9 C3 9.99 3 10.98 3 12 C4.65 12 6.3 12 8 12 C8.33 11.01 8.66 10.02 9 9 C7.02 9 5.04 9 3 9 Z " fill="#022244" transform="translate(71,35)"/>
<path d="M0 0 C1.875 1.5 1.875 1.5 3 3 C2.67 3.99 2.34 4.98 2 6 C-0.31 5.01 -2.62 4.02 -5 3 C-3.37633534 6.24732932 -0.24612161 6.70155136 3 8 C3.1875 10.375 3.1875 10.375 3 13 C-0.46923881 15.31282587 -1.92205575 15.42478586 -6 15 C-7.875 13.6875 -7.875 13.6875 -9 12 C-9 11.01 -9 10.02 -9 9 C-8.01 9 -7.02 9 -6 9 C-5.67 9.66 -5.34 10.32 -5 11 C-2.47266765 11.65555119 -2.47266765 11.65555119 0 12 C-0.93341323 9.57570292 -0.93341323 9.57570292 -4.5 8.625 C-8 7 -8 7 -9.125 5 C-9 3 -9 3 -7.9375 1.25 C-5.15593839 -0.54455588 -3.24250962 -0.4053137 0 0 Z " fill="#032244" transform="translate(104,35)"/>
<path d="M0 0 C3.63 0 7.26 0 11 0 C11 0.99 11 1.98 11 3 C8.36 3 5.72 3 3 3 C3 3.99 3 4.98 3 6 C5.31 6 7.62 6 10 6 C10 6.99 10 7.98 10 9 C7.69 9 5.38 9 3 9 C3 9.99 3 10.98 3 12 C5.64 12 8.28 12 11 12 C11 12.99 11 13.98 11 15 C7.37 15 3.74 15 0 15 C0 10.05 0 5.1 0 0 Z " fill="#022245" transform="translate(84,35)"/>
<path d="M0 0 C3.96 0 7.92 0 12 0 C12 0.99 12 1.98 12 3 C10.35 3 8.7 3 7 3 C7 6.96 7 10.92 7 15 C6.01 15 5.02 15 4 15 C4 11.04 4 7.08 4 3 C2.68 3 1.36 3 0 3 C0 2.01 0 1.02 0 0 Z " fill="#022245" transform="translate(107,35)"/>
<path d="M0 0 C1.32 0.33 2.64 0.66 4 1 C4 5.29 4 9.58 4 14 C2.68 14.33 1.36 14.66 0 15 C0 10.05 0 5.1 0 0 Z " fill="#032244" transform="translate(123,35)"/>
<path d="M0 0 C0.625 1.875 0.625 1.875 1 4 C0.34 4.66 -0.32 5.32 -1 6 C-3.625 5.625 -3.625 5.625 -6 5 C-6.33 3.35 -6.66 1.7 -7 0 C-4.3333581 -1.33332095 -2.83319697 -0.67102033 0 0 Z " fill="#032345" transform="translate(58,44)"/>
</svg>
