<svg xmlns="http://www.w3.org/2000/svg" viewBox="300 0 691.03 185"><defs><style>.cls-1{fill:#9a8b7c;}.cls-2{fill:#7e0c6e;}</style></defs><title>Edinburgh Airport - Where Scotland meets the world</title><g id="Layer_2" data-name="Layer 2"><g id="Layer_1-2" data-name="Layer 1"><g id="Layer_1-2-2" data-name="Layer 1-2"><path class="cls-2" d="M673.39,12.69l4.29-9.09A51.64,51.64,0,0,0,667.34.68l-1.9,3.77L662,4,663.21.14a3.78,3.78,0,0,1-.82-.06C661.05,0,659.2,0,658.16,0h-3c-.55,0-1.09.07-1.64.12L654.8,4l-3.86.37-1.7-3.6a51.59,51.59,0,0,0-10.41,3.05l3.83,8.61C649.8,11,661.38,9.77,673.39,12.69Z"/><path class="cls-2" d="M614.44,135.78a169,169,0,0,0,15.88-20,330.86,330.86,0,0,1,60.71,19,236.88,236.88,0,0,0-76.59.95Z"/><path class="cls-2" d="M691,127.88a380.7,380.7,0,0,1-49.15-33.71,92.14,92.14,0,0,0,4.5-15C659.84,98.6,674.48,114.56,691,127.88Z"/><path class="cls-2" d="M682.67,127.39a333.46,333.46,0,0,0-50.18-14.9,114.89,114.89,0,0,0,7.81-14.6A382.18,382.18,0,0,0,682.67,127.39Z"/><path class="cls-2" d="M680.89,113.76a239.68,239.68,0,0,1-33.54-40.3,83.2,83.2,0,0,0,.81-11.59c0-1.16,0-2.32-.06-3.49C655.65,75.61,667.09,94.93,680.89,113.76Z"/><path class="cls-2" d="M678.24,103.11c-14.84-21.53-26.19-43-31.83-60.62-2.39-12.8-6.72-21.21-8.93-24.88a80.07,80.07,0,0,1,16.94-2.39h5.76c-1.62,8-6.18,40.65,15.67,82.86C676.62,99.76,677.41,101.44,678.24,103.11Z"/><path class="cls-2" d="M668.14,68.06c-8.07-27.62-4.87-47.4-3.77-52.56a80.15,80.15,0,0,1,14,2.53C674.89,23.94,668,38.62,668,61.87,667.91,63.92,668,66,668.14,68.06Z"/></g></g></g></svg>
