<?xml version="1.0" encoding="UTF-8"?>
<svg version="1.1" xmlns="http://www.w3.org/2000/svg" width="266" height="60">
<path d="M0 0 C2.31 0.33 4.62 0.66 7 1 C9.15294651 6.28830549 11.27933894 11.55123997 13 17 C15.15294651 11.71169451 17.27933894 6.44876003 19 1 C21.31 1 23.62 1 26 1 C27.65 6.28 29.3 11.56 31 17 C34.21261209 9.07826144 34.21261209 9.07826144 37 1 C39.64 0.67 42.28 0.34 45 0 C42.98337791 6.92597032 40.76666224 13.7574102 38.375 20.5625 C38.06304687 21.46291016 37.75109375 22.36332031 37.4296875 23.29101562 C37.130625 24.14501953 36.8315625 24.99902344 36.5234375 25.87890625 C36.25450684 26.6479126 35.98557617 27.41691895 35.70849609 28.20922852 C35 30 35 30 34 31 C32.00041636 31.04080783 29.99954746 31.04254356 28 31 C27.65066406 29.92878906 27.30132812 28.85757813 26.94140625 27.75390625 C26.48192855 26.35671896 26.02228454 24.95958635 25.5625 23.5625 C25.33240234 22.85544922 25.10230469 22.14839844 24.86523438 21.41992188 C23.92578853 17.93693205 23.92578853 17.93693205 22 15 C20.02 20.28 18.04 25.56 16 31 C14.02 31 12.04 31 10 31 C8.56975258 27.06948228 7.14576919 23.13676931 5.72753906 19.2019043 C5.24422865 17.86371832 4.75921402 16.52614657 4.27246094 15.18920898 C3.57297655 13.26705444 2.87965723 11.34277196 2.1875 9.41796875 C1.76855469 8.26063232 1.34960938 7.1032959 0.91796875 5.91088867 C0 3 0 3 0 0 Z " fill="#020100" transform="translate(182,19)"/>
<path d="M0 0 C5.28557366 -0.50338797 7.90950339 0.65323004 12 4 C14.30638783 6.93540269 14.43416802 10.0809965 14.29296875 13.765625 C13.23103138 21.86466732 8.50947869 28.7625557 4.375 35.625 C3.88346436 36.44403809 3.39192871 37.26307617 2.88549805 38.10693359 C2.41539307 38.86828613 1.94528809 39.62963867 1.4609375 40.4140625 C1.03603027 41.1045166 0.61112305 41.7949707 0.17333984 42.50634766 C-0.2138623 42.99925293 -0.60106445 43.4921582 -1 44 C-1.66 44 -2.32 44 -3 44 C-4.93982758 30.66368537 -6.25419075 12.5083815 0 0 Z " fill="#EC4242" transform="translate(43,1)"/>
<path d="M0 0 C3.64467591 9.19092185 4.18208161 17.27437372 4.1875 27.125 C4.19974609 28.30449219 4.21199219 29.48398437 4.22460938 30.69921875 C4.22750977 32.39884766 4.22750977 32.39884766 4.23046875 34.1328125 C4.23457764 35.16293457 4.23868652 36.19305664 4.24291992 37.25439453 C3.99890546 40.01237105 3.41778832 41.65048207 2 44 C-2.40652995 38.27151106 -6.08653301 32.29591182 -9.375 25.875 C-9.72046875 25.21886719 -10.0659375 24.56273438 -10.421875 23.88671875 C-13.0761405 18.56757068 -14.68998625 13.29660097 -13.4375 7.3125 C-10.06477009 1.88680406 -6.43653565 -0.76625424 0 0 Z " fill="#D9010F" transform="translate(34,1)"/>
<path d="M0 0 C2.31 0 4.62 0 7 0 C7 3.63 7 7.26 7 11 C11.29 11 15.58 11 20 11 C20 7.37 20 3.74 20 0 C22.31 0 24.62 0 27 0 C27 9.9 27 19.8 27 30 C24.69 30 22.38 30 20 30 C20 26.04 20 22.08 20 18 C15.71 18 11.42 18 7 18 C7 21.96 7 25.92 7 30 C4.69 30 2.38 30 0 30 C0 20.1 0 10.2 0 0 Z " fill="#000000" transform="translate(91,20)"/>
<path d="M0 0 C7.59 0 15.18 0 23 0 C23 1.98 23 3.96 23 6 C17.72 6 12.44 6 7 6 C7 7.65 7 9.3 7 11 C10.63 11 14.26 11 18 11 C18 12.98 18 14.96 18 17 C14.37 17 10.74 17 7 17 C7 18.98 7 20.96 7 23 C12.61 23 18.22 23 24 23 C24 25.31 24 27.62 24 30 C16.08 30 8.16 30 0 30 C0 20.1 0 10.2 0 0 Z " fill="#010100" transform="translate(230,20)"/>
<path d="M0 0 C1.134375 0.020625 2.26875 0.04125 3.4375 0.0625 C5.15362092 3.84960461 6.86239841 7.63990964 8.56445312 11.43334961 C9.14447617 12.72331696 9.72649489 14.01238891 10.31054688 15.30053711 C11.14980159 17.15246398 11.98182208 19.00749439 12.8125 20.86328125 C13.31523437 21.97872314 13.81796875 23.09416504 14.3359375 24.2434082 C15.4375 27.0625 15.4375 27.0625 15.4375 30.0625 C13.1275 30.0625 10.8175 30.0625 8.4375 30.0625 C7.7775 28.0825 7.1175 26.1025 6.4375 24.0625 C1.8175 24.0625 -2.8025 24.0625 -7.5625 24.0625 C-7.8925 25.7125 -8.2225 27.3625 -8.5625 29.0625 C-9.5625 30.0625 -9.5625 30.0625 -13.125 30.125 C-14.259375 30.104375 -15.39375 30.08375 -16.5625 30.0625 C-15.28965142 26.10774672 -13.86972019 22.29056395 -12.21484375 18.48046875 C-11.77462891 17.46662109 -11.33441406 16.45277344 -10.88085938 15.40820312 C-10.19733398 13.84489258 -10.19733398 13.84489258 -9.5 12.25 C-9.04044922 11.18845703 -8.58089844 10.12691406 -8.10742188 9.03320312 C-4.20378324 0.07375058 -4.20378324 0.07375058 0 0 Z M-0.5625 9.0625 C-2.7638866 12.86677492 -2.7638866 12.86677492 -3.5625 17.0625 C-1.2525 17.0625 1.0575 17.0625 3.4375 17.0625 C2.4475 14.4225 1.4575 11.7825 0.4375 9.0625 C0.1075 9.0625 -0.2225 9.0625 -0.5625 9.0625 Z " fill="#030100" transform="translate(169.5625,19.9375)"/>
<path d="M0 0 C2 2 2 2 2.1875 3.91796875 C1.73477644 9.39781016 0.45521701 12.63640399 -3.3671875 16.625 C-5.42463137 18.35758431 -7.40432212 19.3129088 -10 20 C-8.35 20.33 -6.7 20.66 -5 21 C-6.50244436 24.82440382 -8.52010111 26.83472958 -12 29 C-18.01514905 30.17944099 -21.83939274 27.77818531 -26.86328125 24.80078125 C-29.34608347 22.70832819 -29.90910938 21.00586627 -31 18 C-27.52202944 15.93547813 -24.04240467 13.87375983 -20.5625 11.8125 C-19.58861328 11.23435547 -18.61472656 10.65621094 -17.61132812 10.06054688 C-11.78981799 6.61436863 -5.93575626 3.24569638 0 0 Z " fill="#C1010C" transform="translate(76,30)"/>
<path d="M0 0 C2.31 0 4.62 0 7 0 C7.02505615 0.59538574 7.0501123 1.19077148 7.07592773 1.80419922 C7.19177494 4.49469136 7.31455196 7.1848234 7.4375 9.875 C7.47681641 10.81214844 7.51613281 11.74929687 7.55664062 12.71484375 C7.59853516 13.61074219 7.64042969 14.50664063 7.68359375 15.4296875 C7.72025146 16.25710449 7.75690918 17.08452148 7.79467773 17.93701172 C7.88238327 20.06179429 7.88238327 20.06179429 9 22 C13.13191749 23.34008135 13.88348273 23.05825864 18 21 C18.33 14.07 18.66 7.14 19 0 C21.31 0 23.62 0 26 0 C26.11681812 3.54138618 26.187455 7.0822724 26.25 10.625 C26.30027344 12.12353516 26.30027344 12.12353516 26.3515625 13.65234375 C26.43023265 19.59194002 26.232268 23.42737478 22 28 C17.79430916 30.92202617 12.92118162 30.63649352 8 30 C3.88556026 27.94278013 1.66951528 26.26093062 0 22 C-0.22705078 19.52636719 -0.22705078 19.52636719 -0.1953125 16.796875 C-0.18886719 15.8171875 -0.18242188 14.8375 -0.17578125 13.828125 C-0.15902344 12.81234375 -0.14226562 11.7965625 -0.125 10.75 C-0.11597656 9.71875 -0.10695313 8.6875 -0.09765625 7.625 C-0.07412011 5.08309713 -0.04124023 2.5416672 0 0 Z " fill="#020000" transform="translate(125,20)"/>
<path d="M0 0 C11.15653449 5.31122253 21.63591464 11.27437014 32 18 C31.70014818 21.20023674 31.42907624 22.61441687 28.99609375 24.80078125 C23.36776013 28.12622417 19.56090773 30.11201826 13 29 C9.96034366 27.1891409 8.39577769 26.09599977 7.1875 22.75 C7.125625 22.1725 7.06375 21.595 7 21 C8.32 20.67 9.64 20.34 11 20 C10.0925 19.608125 9.185 19.21625 8.25 18.8125 C4.26844818 16.59201918 2.03069992 14.06139984 0 10 C-0.06996014 8.29297265 -0.08440154 6.58331997 -0.0625 4.875 C-0.05347656 3.96492188 -0.04445312 3.05484375 -0.03515625 2.1171875 C-0.02355469 1.41851563 -0.01195312 0.71984375 0 0 Z " fill="#A90103" transform="translate(0,30)"/>
<path d="M0 0 C3.36850066 1.12283355 3.74400013 1.67205636 5.63671875 4.5078125 C6.12817383 5.24064453 6.61962891 5.97347656 7.12597656 6.72851562 C7.6412793 7.51935547 8.15658203 8.31019531 8.6875 9.125 C9.21698242 9.92873047 9.74646484 10.73246094 10.29199219 11.56054688 C23 31.11962743 23 31.11962743 23 36 C18.05157678 34.55893376 13.93979705 32.45737073 9.5625 29.8125 C8.90233887 29.41538818 8.24217773 29.01827637 7.56201172 28.60913086 C2.25751926 25.33174514 -3.14007669 21.71984662 -6 16 C-6.89177186 9.75759699 -4.8291274 6.59872063 -1.3125 1.72265625 C-0.879375 1.15417969 -0.44625 0.58570313 0 0 Z " fill="#C40008" transform="translate(11,11)"/>
<path d="M0 0 C5.87924528 4.33207547 5.87924528 4.33207547 7 8 C7.43374695 12.48205178 7.46697622 14.9599166 5.625 19.0625 C-1.16233474 26.65785078 -10.88662496 31.64200525 -20 36 C-20.66 36 -21.32 36 -22 36 C-17.20745307 23.32371337 -9.64400443 9.64400443 0 0 Z " fill="#D90111" transform="translate(65,11)"/>
<path d="M0 0 C3.53221802 8.90733239 4.13928431 16.43581043 4 26 C-0.57139722 25.46488661 -0.57139722 25.46488661 -2.4765625 23.3984375 C-3.68008646 21.27794291 -4.87258169 19.16217209 -6 17 C-6.33515625 16.38125 -6.6703125 15.7625 -7.015625 15.125 C-9.01240595 11.05882789 -9.16590334 8.34563971 -8 4 C-8.66 3.67 -9.32 3.34 -10 3 C-6.68152292 -0.06320961 -4.44849969 -0.3033068 0 0 Z " fill="#EB1A26" transform="translate(34,1)"/>
<path d="M0 0 C5.2858549 -0.50341475 7.86554151 0.73089329 12 4 C13.35439668 6.70879335 13.06501451 9.00933268 13 12 C12.34 12 11.68 12 11 12 C11 12.66 11 13.32 11 14 C7.5647952 16.29013653 6.014669 16.17842973 2 16 C1.731875 15.195625 1.46375 14.39125 1.1875 13.5625 C0.795625 12.716875 0.40375 11.87125 0 11 C-0.99 10.67 -1.98 10.34 -3 10 C-2.01 6.7 -1.02 3.4 0 0 Z " fill="#F18879" transform="translate(43,1)"/>
<path d="M0 0 C1.98 0 3.96 0 6 0 C6 9.9 6 19.8 6 30 C4.02 30 2.04 30 0 30 C0 20.1 0 10.2 0 0 Z " fill="#010000" transform="translate(260,20)"/>
<path d="M0 0 C4.75439642 3.41341282 4.75439642 3.41341282 5.8046875 5.921875 C6 8 6 8 5.13671875 9.78125 C1.30774135 14.32235527 -2.29482033 16.31562824 -7.92578125 18.17578125 C-10.17997509 18.80489815 -10.17997509 18.80489815 -11 21 C-11.66 21 -12.32 21 -13 21 C-12.52667193 15.92862785 -10.00989261 12.76853749 -7.0625 8.8125 C-6.60681641 8.18408203 -6.15113281 7.55566406 -5.68164062 6.90820312 C-3.89611772 4.46389285 -2.14335026 2.14335026 0 0 Z " fill="#E81C2A" transform="translate(65,11)"/>
<path d="M0 0 C0.99 0.33 1.98 0.66 3 1 C4.89212737 1.22179785 6.78884472 1.40614015 8.6875 1.5625 C9.68136719 1.64628906 10.67523438 1.73007812 11.69921875 1.81640625 C12.83810547 1.90728516 12.83810547 1.90728516 14 2 C12.72984669 4.22955653 11.45889952 6.45865426 10.1875 8.6875 C9.83107422 9.31333984 9.47464844 9.93917969 9.10742188 10.58398438 C8.40437954 11.81592095 7.69853766 13.04626458 6.98974609 14.27490234 C6.09921217 15.82707618 5.22987755 17.39136681 4.36328125 18.95703125 C3.91339844 19.63121094 3.46351562 20.30539063 3 21 C2.34 21 1.68 21 1 21 C0.06145994 13.96094956 -0.10808032 7.09727428 0 0 Z " fill="#DC0112" transform="translate(39,24)"/>
<path d="M0 0 C0.33 0 0.66 0 1 0 C1 2.64 1 5.28 1 8 C0.01 8.33 -0.98 8.66 -2 9 C-2 9.99 -2 10.98 -2 12 C-3.95917659 11.9131252 -5.91741871 11.80495488 -7.875 11.6875 C-8.96554688 11.62949219 -10.05609375 11.57148438 -11.1796875 11.51171875 C-12.11039063 11.34285156 -13.04109375 11.17398437 -14 11 C-16.1519437 7.77208445 -16.20086443 6.71599191 -16 3 C-15.01 3 -14.02 3 -13 3 C-12.34 4.32 -11.68 5.64 -11 7 C-7.65747276 7.07427838 -5.1964086 7.06546953 -2 6 C-2 5.34 -2 4.68 -2 4 C-1.34 4 -0.68 4 0 4 C0 2.68 0 1.36 0 0 Z " fill="#E86760" transform="translate(56,9)"/>
<path d="M0 0 C1.98 0 3.96 0 6 0 C8.99365082 7.54920643 10.13987147 13.8874545 10 22 C7.55078125 20.484375 7.55078125 20.484375 5 18 C4.46574086 15.22539454 4.21108048 13.02201654 4.1875 10.25 C4.16236328 9.55261719 4.13722656 8.85523438 4.11132812 8.13671875 C4.05271038 6.42508051 4.02342947 4.7124814 4 3 C3.34 3 2.68 3 2 3 C2 2.34 2 1.68 2 1 C1.34 0.67 0.68 0.34 0 0 Z " fill="#E63A3B" transform="translate(28,1)"/>
<path d="M0 0 C1.50433594 0.01353516 1.50433594 0.01353516 3.0390625 0.02734375 C3.80992188 0.03894531 4.58078125 0.05054688 5.375 0.0625 C3.6246737 3.83243357 1.96611581 5.82802794 -1.625 8.0625 C-5.3125 8.4375 -5.3125 8.4375 -8.625 8.0625 C-9.285 7.4025 -9.945 6.7425 -10.625 6.0625 C-10.13 5.60875 -9.635 5.155 -9.125 4.6875 C-7.39890663 3.18614481 -7.39890663 3.18614481 -7.625 1.0625 C-4.98041621 -0.25979189 -2.94738699 -0.03427194 0 0 Z " fill="#AF0207" transform="translate(65.625,50.9375)"/>
<path d="M0 0 C0.78375 0.04125 1.5675 0.0825 2.375 0.125 C2.705 1.115 3.035 2.105 3.375 3.125 C4.035 3.455 4.695 3.785 5.375 4.125 C4.80155063 6.99224686 4.5135485 7.9864515 2.375 10.125 C-2.95833333 10.45833333 -2.95833333 10.45833333 -5.625 9.125 C-4.6356383 0.22074468 -4.6356383 0.22074468 0 0 Z " fill="#FCA691" transform="translate(49.625,3.875)"/>
<path d="M0 0 C1.32 0 2.64 0 4 0 C4.33 6.27 4.66 12.54 5 19 C1.71541707 15.71541707 0.48223473 13.37259245 -1 9 C-0.6875 5.5625 -0.6875 5.5625 0 3 C-0.66 2.67 -1.32 2.34 -2 2 C-1.34 1.34 -0.68 0.68 0 0 Z " fill="#E7111E" transform="translate(26,2)"/>
<path d="M0 0 C0.99 0.33 1.98 0.66 3 1 C4.89212737 1.22179785 6.78884472 1.40614015 8.6875 1.5625 C9.68136719 1.64628906 10.67523438 1.73007812 11.69921875 1.81640625 C12.83810547 1.90728516 12.83810547 1.90728516 14 2 C13.01 3.98 12.02 5.96 11 8 C10.01 8 9.02 8 8 8 C8 7.34 8 6.68 8 6 C5.36 5.67 2.72 5.34 0 5 C0 3.35 0 1.7 0 0 Z " fill="#E71E28" transform="translate(39,24)"/>
<path d="M0 0 C4.62 0 9.24 0 14 0 C13.01 0.495 13.01 0.495 12 1 C12.33 1.99 12.66 2.98 13 4 C12.34 4.66 11.68 5.32 11 6 C6.83554533 5.90745656 5.27137545 5.24187812 2.125 2.4375 C1.42375 1.633125 0.7225 0.82875 0 0 Z " fill="#B40008" transform="translate(46,51)"/>
<path d="M0 0 C0.33 0 0.66 0 1 0 C0.25 6.75 0.25 6.75 -2 9 C-2.6425235 11.06874034 -2.6425235 11.06874034 -3 13 C-4.98 13.33 -6.96 13.66 -9 14 C-7.65378455 10.19136032 -5.94641263 7.34590149 -3.4375 4.1875 C-2.81746094 3.39730469 -2.19742188 2.60710938 -1.55859375 1.79296875 C-0.78708984 0.90544922 -0.78708984 0.90544922 0 0 Z " fill="#E23D43" transform="translate(65,11)"/>
<path d="M0 0 C0.66 0 1.32 0 2 0 C0.73058503 3.91402949 -0.51167694 5.79072873 -4 8 C-3.67 6.35 -3.34 4.7 -3 3 C-2.34 3 -1.68 3 -1 3 C-0.67 2.01 -0.34 1.02 0 0 Z M-4 8 C-6.38584514 9.19292257 -8.77338031 10.36394368 -11.1875 11.5 C-14.0912513 12.70021344 -14.0912513 12.70021344 -15 15 C-15.66 15 -16.32 15 -17 15 C-17 14.01 -17 13.02 -17 12 C-15.35 11.67 -13.7 11.34 -12 11 C-12 10.34 -12 9.68 -12 9 C-9.07175348 8.02391783 -7.04386724 7.91773332 -4 8 Z " fill="#E40C1F" transform="translate(69,17)"/>
<path d="M0 0 C1.32 0 2.64 0 4 0 C2.49755564 3.82440382 0.47989889 5.83472958 -3 8 C-6.6875 8.375 -6.6875 8.375 -10 8 C-10.66 7.34 -11.32 6.68 -12 6 C-8.7 5.67 -5.4 5.34 -2 5 C-1.34 3.35 -0.68 1.7 0 0 Z " fill="#980A0B" transform="translate(67,51)"/>
<path d="M0 0 C5.26371362 -0.50130606 7.9090934 0.68831371 12 4 C12 4.66 12 5.32 12 6 C11.01 6.33 10.02 6.66 9 7 C9 6.01 9 5.02 9 4 C8.236875 4 7.47375 4 6.6875 4 C4.125 4 1.5625 4 -1 4 C-0.67 2.68 -0.34 1.36 0 0 Z " fill="#EA8F89" transform="translate(43,1)"/>
<path d="M0 0 C0.33 0 0.66 0 1 0 C1 1.98 1 3.96 1 6 C4.65316671 4.75023244 5.78065836 4.32901247 8 1 C8.66 1.33 9.32 1.66 10 2 C9.42655063 4.86724686 9.1385485 5.8614515 7 8 C1.66666667 8.33333333 1.66666667 8.33333333 -1 7 C-0.67 4.69 -0.34 2.38 0 0 Z " fill="#F59D89" transform="translate(45,6)"/>
<path d="M0 0 C0.66 0 1.32 0 2 0 C3.20568053 4.67201205 3.09382426 9.21496292 3 14 C2.67 13.34 2.34 12.68 2 12 C1.34 12 0.68 12 0 12 C0 8.04 0 4.08 0 0 Z " fill="#EB2F35" transform="translate(30,4)"/>
<path d="M0 0 C0.66 0 1.32 0 2 0 C2.38897161 1.62171239 2.76078298 3.24754925 3.125 4.875 C3.33382812 5.77992187 3.54265625 6.68484375 3.7578125 7.6171875 C3.83773437 8.40351563 3.91765625 9.18984375 4 10 C3.34 10.66 2.68 11.32 2 12 C0 10 0 10 -0.1953125 7.6171875 C-0.17210937 6.71226563 -0.14890625 5.80734375 -0.125 4.875 C-0.10695312 3.96492187 -0.08890625 3.05484375 -0.0703125 2.1171875 C-0.04710937 1.41851562 -0.02390625 0.71984375 0 0 Z " fill="#EA4F4C" transform="translate(34,6)"/>
<path d="M0 0 C1.32 0.99 2.64 1.98 4 3 C3.375 5.4375 3.375 5.4375 2 8 C-1.125 8.8125 -1.125 8.8125 -4 9 C-3.2884375 7.88625 -3.2884375 7.88625 -2.5625 6.75 C-1.22130673 4.38949985 -0.487688 2.63351523 0 0 Z " fill="#DE2331" transform="translate(66,12)"/>
<path d="M0 0 C1.32 0 2.64 0 4 0 C4 4.62 4 9.24 4 14 C1.97826068 10.96739103 1.70661562 9.91309963 1.4375 6.4375 C1.18539562 3.09342768 1.18539562 3.09342768 0 0 Z " fill="#E91D2C" transform="translate(26,2)"/>
<path d="M0 0 C0.66 0 1.32 0 2 0 C1.34 1.98 0.68 3.96 0 6 C-1.65 5.67 -3.3 5.34 -5 5 C-5 4.34 -5 3.68 -5 3 C-3.35 3 -1.7 3 0 3 C0 2.01 0 1.02 0 0 Z " fill="#E8514F" transform="translate(54,18)"/>
<path d="M0 0 C1.98 0 3.96 0 6 0 C6.66 1.65 7.32 3.3 8 5 C6.02 4.34 4.04 3.68 2 3 C2 2.34 2 1.68 2 1 C1.34 0.67 0.68 0.34 0 0 Z " fill="#E53E49" transform="translate(28,1)"/>
<path d="M0 0 C2.31 0 4.62 0 7 0 C6.67 1.32 6.34 2.64 6 4 C5.01 4 4.02 4 3 4 C3 3.34 3 2.68 3 2 C2.01 1.67 1.02 1.34 0 1 C0 0.67 0 0.34 0 0 Z " fill="#E41321" transform="translate(44,28)"/>
<path d="M0 0 C0.99 0 1.98 0 3 0 C3.66 1.98 4.32 3.96 5 6 C2.525 5.01 2.525 5.01 0 4 C0 2.68 0 1.36 0 0 Z " fill="#FA726C" transform="translate(40,12)"/>
<path d="M0 0 C0.33 0.66 0.66 1.32 1 2 C1.99 1.67 2.98 1.34 4 1 C4 1.99 4 2.98 4 4 C2.02 4.33 0.04 4.66 -2 5 C-1.34 3.35 -0.68 1.7 0 0 Z " fill="#E53238" transform="translate(58,20)"/>
<path d="M0 0 C1.65 0 3.3 0 5 0 C4.34 1.32 3.68 2.64 3 4 C2.01 4 1.02 4 0 4 C0 2.68 0 1.36 0 0 Z " fill="#F1AF94" transform="translate(47,8)"/>
</svg>
